<svg width="347" height="59" viewBox="0 0 347 59" fill="none" xmlns="http://www.w3.org/2000/svg">
<path d="M299.43 0.00195312C303.665 -0.00373858 304.613 0.026206 305.146 0.165039C306.213 0.442971 307.022 0.999906 307.74 1.95215C308.361 2.77472 308.592 3.65191 308.679 5.52539C308.826 8.68274 309.242 11.3204 310.037 14.1338C310.257 14.9129 310.471 15.7939 310.513 16.0918C310.618 16.8467 310.386 17.9419 309.957 18.707C309.757 19.0629 308.421 20.9027 306.988 22.7949C304.562 25.9982 304.392 26.2543 304.511 26.5156C304.763 27.0686 306.053 29.2498 306.724 30.2568C309.384 34.2507 312.532 37.399 316.547 40.0811C317.868 40.9632 320.472 42.5097 320.64 42.5117C320.684 42.5117 322.254 41.3444 324.129 39.918C326.003 38.4917 327.88 37.1478 328.299 36.9307C328.969 36.5831 329.184 36.5306 330.105 36.4902C331.061 36.4485 331.294 36.4851 332.796 36.9111C335.707 37.7368 337.97 38.1037 340.994 38.2402C341.84 38.2785 342.815 38.363 343.16 38.4287C344.929 38.7658 346.421 40.246 346.795 42.0332C346.96 42.8257 346.968 53.745 346.805 54.6074C346.472 56.3632 344.923 57.9092 343.162 58.2432C342.787 58.3144 342.171 58.3432 341.404 58.3418V58.3457H7C3.13401 58.3457 0 55.2117 0 51.3457V7C0 3.13401 3.13401 1.05703e-07 7 0H299.43V0.00195312Z" fill="#EB1C24" fill-opacity="0.6"/>
<path d="M316.961 17.3468C322.993 19.7572 325.388 21.96 327.211 28.3851M319.327 8.67349C329.261 12.1391 333.134 15.9982 336.673 26.8081" stroke="#EB1C24" stroke-opacity="0.6" stroke-width="5" stroke-linecap="round"/>
</svg>
