<svg xmlns="http://www.w3.org/2000/svg" viewBox="0 0 324.52 74.44"><title>logo-full</title><path d="M80.82,27.69c0-3.37-1.37-4-4.28-4.42v-.14l.08,0a4.94,4.94,0,0,0,2.22-1C79.9,21.27,80,19.73,80,18.49c0-3.61-1.85-5.15-6.18-5.15H54.71V33.45H74.15C78.27,33.45,80.82,32.48,80.82,27.69Zm-20.1-6.47V17.63H71.54c1.17,0,2.42.14,2.42,1.77s-1.2,1.9-2.54,1.9H60.72Zm0,7.79V25.16H72.09c1.3,0,2.68.14,2.68,1.8C74.77,28.85,73.46,29,72,29Z" style="fill:#0099d8"/><path d="M103.41,28.52h-14V13.34h-6V33.45h20Z" style="fill:#0099d8"/><path d="M131,13.37h-6V24.78c-.09,2.94-.46,4-4,4l-2.55,0-2.76,0c-4.15-.1-4.36-1.1-4.48-4.93V13.37h-6V25.72c0,7.55,4.11,7.94,10.8,7.94l5,0c6.51,0,10-1.22,10-7.67Z" style="fill:#0099d8"/><path d="M156.6,17.81V13.34H134.16V33.45H156.6V29H140.18V25.28h15.33V21.42H140.18V17.81Z" style="fill:#0099d8"/><path d="M179.11,33.6l3.83.06,4.7-.09c5.82-.24,7.52-1.17,7.52-6.88,0,0,0-.71,0-.81h-5.9c0,2.73-1.41,2.95-3.5,2.95l-3.16,0-2.4-.06c-4.49-.13-4.69-1.32-4.69-5.42,0-3.79,0-5.35,4.11-5.39l3.13,0h1.7l1.74,0c1.69.09,2.88.32,2.91,2.34h5.84c-.09-3.38-.55-6.43-4.82-6.9a71.31,71.31,0,0,0-7.58-.27c-1.9,0-3.85,0-5.76.15h0c-6.25.44-7.34,3.43-7.34,9.55,0,1.42.06,2.81.18,4.25C170.05,33.49,174.05,33.54,179.11,33.6Z" style="fill:#0099d8"/><path d="M203.93,28.26H214.3c2.62,0,2.74,1.07,2.74,3.32v1.87h6.11V29.63c0-2.75-1.49-3.48-4.07-3.81v-.14l.6-.19a4.81,4.81,0,0,0,2.88-1.69,7.74,7.74,0,0,0,.84-4.13c0-4.67-1.75-6.33-6.7-6.33H197.91V33.45h6Zm0-4.85v-5.3h10.34a6.88,6.88,0,0,1,1.78.19c1.21.35,1.23,1.25,1.26,2.28,0,2.32-.31,2.9-3.2,2.9H203.93Z" style="fill:#0099d8"/><path d="M244,13.16l-4.92,0-4.37.09h0c-8.18.12-9,2-9,9.89l.06,3.73c.19,4.36,2.3,6.29,7.28,6.67,1.56.1,2.93.15,4.19.15l1.94,0,4.64-.09c9-.3,9.5-2.94,9.5-10.52V22C253.33,15.07,251.33,13.16,244,13.16Zm3.17,12.23c-.15,3.24-2,3.41-5,3.41l-3.16,0-3.31-.06c-3.8-.1-4-1.55-4-4.81v-.82a21.13,21.13,0,0,1,.09-2.38c.35-2.67,2.3-2.71,4.18-2.76h.42l6.13,0c1.34,0,3,.09,3.69.72s.94,2.53.94,4Z" style="fill:#0099d8"/><path d="M281,27.23c0-5.11-2.59-6.08-7.39-6.08l-4.07,0-4.13-.06h-.5c-1.38,0-3.09-.06-3.09-1.88,0-1.3,1.23-1.53,2.31-1.59l1.2-.05,3.51-.1,3,0c1.37.06,2.3.42,2.42,1.91h5.91v-.25a7.25,7.25,0,0,0-.66-3.5c-1.43-2.36-4.21-2.39-6.66-2.42l-4.32-.06c-2.92,0-7,.06-9.06.61h0c-3.1.79-3.71,2.73-3.71,5.82,0,4,1.39,5.52,5.12,5.78,3.37.21,6.81.21,10.14.21h1c.95,0,2.93,0,2.93,1.87,0,1.71-1.33,1.77-2.61,1.82h-.2c-1.26.08-2.58.12-4.13.12l-2.91,0h-.22c-1.34,0-3-.12-3-1.94l0-.26h-5.93v1.14c0,4.54,2.38,5,6.31,5.27,1.36.09,2.77.09,4.12.09,2.82,0,5.4-.07,7.89-.21C279,33,281,32.1,281,27.23Z" style="fill:#0099d8"/><path d="M288.11,25.34c3.36.21,6.8.21,10.13.21h1c.95,0,2.93,0,2.93,1.87,0,1.71-1.33,1.77-2.61,1.82h-.19c-1.27.08-2.58.12-4.14.12l-2.91,0h-.22c-1.34,0-3-.12-3-1.94l0-.26h-5.94v1.14c0,4.54,2.39,5,6.31,5.27,1.36.09,2.77.09,4.12.09,2.82,0,5.4-.07,7.89-.21,4.79-.38,6.8-1.32,6.8-6.19,0-5.11-2.6-6.08-7.4-6.08l-4.07,0-4.13-.06h-.5c-1.38,0-3.09-.06-3.09-1.88,0-1.3,1.24-1.53,2.31-1.59l1.21-.05,3.51-.1,3,0c1.37.06,2.3.42,2.42,1.91h5.91v-.25a7.24,7.24,0,0,0-.65-3.5c-1.44-2.36-4.22-2.39-6.67-2.42l-4.32-.06c-2.92,0-7,.06-9.06.61h0c-3.1.79-3.71,2.73-3.71,5.82C283,23.52,284.37,25.08,288.11,25.34Z" style="fill:#0099d8"/><path d="M56.68,1.7,60,7.53h1.73L65.12,1.7V7.53h2V.28H63.66l-2.72,5-2.76-5H54.71V7.53h2Z" style="fill:#0099d8"/><path d="M71.72,6.19h4.87l.7,1.34H79.6L75.65.28h-3c0,.07-3.93,7-4,7.25H71Zm.77-1.49,1.65-3.05,1.71,3.16H72.43Z" style="fill:#0099d8"/><path d="M91.14,7.53V.28h-2V6L84.57.25l-3.45,0V7.53h2V1.84l4.59,5.72Z" style="fill:#0099d8"/><path d="M95.15.28H93V7.53h2.11Z" style="fill:#0099d8"/><path d="M100.3,7.53h2.11V2h3.29V.28H97V2h3.3Z" style="fill:#0099d8"/><path d="M109.77,7.56l1.53.05H112l1.69,0c3.27-.11,3.43-1,3.43-3.8V3.41c0-2.51-.72-3.2-3.36-3.2H112l-1.59,0c-2.95.05-3.25.72-3.25,3.57l0,1.36C107.22,6.73,108,7.42,109.77,7.56Zm-.51-3.75,0-.87c.14-1,.87-1,1.58-1h2.39a2.41,2.41,0,0,1,1.38.27A2.1,2.1,0,0,1,115,3.63l0,1c-.06,1.3-.9,1.3-1.86,1.3H112l-1.21,0c-1.42,0-1.49-.61-1.49-1.8Z" style="fill:#0099d8"/><path d="M128.5,5.48c0-1.2-.47-1.4-1.53-1.57l0-.15a1.83,1.83,0,0,0,.79-.35,1.64,1.64,0,0,0,.42-1.3c0-1.28-.66-1.83-2.21-1.83h-7V7.53h7.06C127.58,7.53,128.5,7.19,128.5,5.48Zm-7.35-2.37V1.75h4c.33,0,.93,0,.93.7s-.48.74-1,.74h-4Zm0,2.89V4.5h4.2c.36,0,1,0,1,.71s-.5.79-1.06.79Z" style="fill:#0099d8"/><path d="M132.62,6.19h4.87l.7,1.34h2.32l-4-7.25h-3c0,.07-3.93,7-4,7.25h2.34Zm.77-1.49L135,1.65l1.71,3.16h-3.42Z" style="fill:#0099d8"/><path d="M318,13a6.5,6.5,0,1,0,6.5,6.5A6.5,6.5,0,0,0,318,13Zm0,11.77a5.27,5.27,0,1,1,5.27-5.27A5.25,5.25,0,0,1,318,24.73Z" style="fill:#0099d8"/><path d="M321.45,17.92c0-1.69-1.31-2-2.72-2h-3.39v7h1.37V20h1.38l1.57,3h1.58l-1.68-3C320.79,19.94,321.45,19.43,321.45,17.92ZM318.77,19h-2.06V17h1.7c.69,0,1.68,0,1.68.92S319.56,19,318.77,19Z" style="fill:#0099d8"/><path d="M33.44,0H13.34V13.34H0v20.1H13.34V46.78h20.1V33.44H46.78V13.34H33.44Z" style="fill:#0099d8"/><polygon points="54.71 58.99 59.89 58.99 59.89 74.17 62.12 74.17 62.12 58.99 67.33 58.99 67.33 57.12 54.71 57.12 54.71 58.99" style="fill:#0099d8"/><polygon points="79.67 64.25 71.43 64.25 71.43 57.12 69.2 57.12 69.2 74.17 71.43 74.17 71.43 66.17 79.67 66.17 79.67 74.17 81.9 74.17 81.9 57.12 79.67 57.12 79.67 64.25" style="fill:#0099d8"/><polygon points="87.92 66.17 94.53 66.17 94.53 64.35 87.92 64.35 87.92 58.96 94.93 58.96 94.93 57.12 85.7 57.12 85.7 74.17 95.31 74.17 95.31 72.32 87.92 72.32 87.92 66.17" style="fill:#0099d8"/><path d="M106.59,60a8.13,8.13,0,0,1,3.24.63l.81-3a10.14,10.14,0,0,0-4.2-.75c-5.16,0-9.31,3.21-9.31,9,0,4.88,3,8.57,8.93,8.57a11.29,11.29,0,0,0,4.35-.73l-.55-3a9.43,9.43,0,0,1-3.24.55c-3.42,0-5.44-2.15-5.44-5.57C101.18,61.84,103.56,60,106.59,60Z" style="fill:#0099d8"/><path d="M119.7,56.84c-5,0-8.29,3.82-8.29,8.93,0,4.85,3,8.67,8,8.67h0c5,0,8.35-3.36,8.35-9C127.8,60.76,124.94,56.84,119.7,56.84Zm-.1,14.54h0c-2.58,0-4.13-2.5-4.13-5.72s1.5-5.76,4.15-5.76,4.1,2.63,4.1,5.69C123.7,68.93,122.21,71.38,119.6,71.38Z" style="fill:#0099d8"/><polygon points="134.2 57.12 130.35 57.12 130.35 74.17 140.98 74.17 140.98 70.93 134.2 70.93 134.2 57.12" style="fill:#0099d8"/><path d="M149.81,56.84c-5,0-8.3,3.82-8.3,8.93,0,4.85,3,8.67,8,8.67h0c5,0,8.35-3.36,8.35-9C157.91,60.76,155.05,56.84,149.81,56.84Zm-.1,14.54h0c-2.58,0-4.13-2.5-4.13-5.72s1.49-5.76,4.15-5.76,4.1,2.63,4.1,5.69C153.81,68.93,152.32,71.38,149.71,71.38Z" style="fill:#0099d8"/><path d="M170.51,66.9c0,3-1.12,4.46-3.14,4.46s-3.09-1.5-3.09-4.46V57.12h-3.84v9.51c0,5.41,2.5,7.81,6.8,7.81s7.11-2.5,7.11-7.76V57.12h-3.84Z" style="fill:#0099d8"/><path d="M186.92,66.17v-.08a4.51,4.51,0,0,0,3-4.17,4.27,4.27,0,0,0-1.59-3.57c-1.21-1-3-1.36-5.51-1.36a30,30,0,0,0-5.14.38V74.16h3.82v-6.7h1.14c1.59,0,2.33.58,2.81,2.73a22.36,22.36,0,0,0,1.16,4h3.95a49.82,49.82,0,0,1-1.37-4.83C188.77,67.76,188.11,66.65,186.92,66.17ZM183,64.68h-1.52V60a7.39,7.39,0,0,1,1.75-.13c1.77,0,2.83.81,2.83,2.35S185,64.68,183,64.68Z" style="fill:#0099d8"/><path d="M199.83,56.84c-4.56,0-7.9,3.54-7.9,9,0,5.16,3.14,8.65,7.67,8.65h0c4.33,0,7.9-3.13,7.9-9C207.52,60.4,204.51,56.84,199.83,56.84Zm-.13,15.81h0c-3.46,0-5.44-3.32-5.44-6.91s1.83-7.11,5.49-7.11,5.44,3.54,5.44,6.93C205.16,69.43,203.19,72.65,199.7,72.65Z" style="fill:#0099d8"/><polygon points="210.35 74.17 212.58 74.17 212.58 66.45 219 66.45 219 64.63 212.58 64.63 212.58 58.96 219.53 58.96 219.53 57.12 210.35 57.12 210.35 74.17" style="fill:#0099d8"/><path d="M231.12,60a8.13,8.13,0,0,1,3.24.63l.81-3a10.18,10.18,0,0,0-4.2-.75c-5.16,0-9.31,3.21-9.31,9,0,4.88,3,8.57,8.93,8.57a11.29,11.29,0,0,0,4.35-.73l-.56-3a9.37,9.37,0,0,1-3.23.55c-3.42,0-5.44-2.15-5.44-5.57C225.71,61.84,228.08,60,231.12,60Z" style="fill:#0099d8"/><path d="M241.71,57.12l-5.21,17h4l1.19-4.37h4.9l1.32,4.37h4.15l-5.31-17Zm.54,9.78,1-3.61c.26-1,.53-2.28.76-3.29h.08c.25,1,.55,2.28.83,3.29L246,66.9Z" style="fill:#0099d8"/><path d="M263.57,66.17v-.08a4.51,4.51,0,0,0,3-4.17A4.3,4.3,0,0,0,265,58.35c-1.22-1-3-1.36-5.52-1.36a30,30,0,0,0-5.13.38V74.16h3.82v-6.7h1.14c1.59,0,2.32.58,2.8,2.73a21.2,21.2,0,0,0,1.17,4h4a47,47,0,0,1-1.37-4.83C265.42,67.76,264.76,66.65,263.57,66.17Zm-3.9-1.49h-1.51V60a7.28,7.28,0,0,1,1.74-.13c1.77,0,2.84.81,2.84,2.35S261.6,64.68,259.67,64.68Z" style="fill:#0099d8"/><rect x="269.36" y="57.12" width="3.85" height="17.05" style="fill:#0099d8"/><path d="M287.12,62.07a69.84,69.84,0,0,0,.31,7.14h-.05a55.06,55.06,0,0,0-2.79-5.85l-3.54-6.24h-4.5v17h3.54V69c0-2.78,0-5.19-.18-7.46h.1a63.42,63.42,0,0,0,3,6l3.65,6.57h4.05v-17h-3.55Z" style="fill:#0099d8"/><path d="M301.9,67.41h2.63V71a5.8,5.8,0,0,1-1.87.23c-3.16,0-5.39-2-5.39-5.59s2.45-5.51,5.66-5.51a8.92,8.92,0,0,1,3.95.73l.81-3.11a12.32,12.32,0,0,0-4.73-.81c-5.59,0-9.71,3.23-9.74,8.9a8.58,8.58,0,0,0,2.4,6.23c1.57,1.49,3.82,2.27,6.93,2.27a18.93,18.93,0,0,0,5.7-1v-9H301.9Z" style="fill:#0099d8"/><path d="M320.08,59.54c0-1-.79-1.17-1.63-1.17h-2v4.21h.82V60.8h.83l.94,1.78H320l-1-1.78C319.68,60.75,320.08,60.44,320.08,59.54Zm-1.61.64h-1.24V59h1c.41,0,1,0,1,.56S318.94,60.18,318.47,60.18Z" style="fill:#0099d8"/><path d="M318,56.56a3.9,3.9,0,1,0,3.9,3.9A3.9,3.9,0,0,0,318,56.56Zm0,7.06a3.16,3.16,0,1,1,3.16-3.16A3.14,3.14,0,0,1,318,63.62Z" style="fill:#0099d8"/></svg>