<?xml version="1.0" encoding="UTF-8"?>
<svg xmlns="http://www.w3.org/2000/svg" id="a5446c50-d59a-4603-83f7-24e2b58c5fcf" data-name="Layer 1" width="770.3" height="115.5" viewBox="0 0 770.3 115.5">
  <defs>
    <style>
      .a1f08931-eea5-4f17-ba0e-81f2a30d92cb {
        fill: #0094d7;
      }
    </style>
  </defs>
  <title>mbc-logo-2</title>
  <polygon class="a1f08931-eea5-4f17-ba0e-81f2a30d92cb" points="82.8 0 32.7 0 32.7 33 0 33 0 82.8 32.7 82.8 32.7 115.5 82.8 115.5 82.8 82.8 115.5 82.8 115.5 33 82.8 33 82.8 0"></polygon>
  <path class="a1f08931-eea5-4f17-ba0e-81f2a30d92cb" d="M136,33.1h43.9c12.2,0,18.1,3.3,18.1,13s-3.1,10.2-7.3,11.4v.2c6.7.8,9.1,4.4,9.1,11.9,0,10.9-6.5,13.2-15.2,13.2H136Zm15.3,37.8h27.3c3.3,0,5.5-.8,5.5-3.6s-2.2-4.1-5.5-4.1H151.3Zm0-18.1h27c2.8,0,4.5-1,4.5-3.8s-1.7-3.9-4.5-3.9h-27Z"></path>
  <path class="a1f08931-eea5-4f17-ba0e-81f2a30d92cb" d="M204.8,33.1H220V70h34.3V82.8H204.8Z"></path>
  <path class="a1f08931-eea5-4f17-ba0e-81f2a30d92cb" d="M259,33.1h15.2V61.8c0,6.3,2.3,8.8,8.5,8.8h15.1c6.2,0,8.5-2.5,8.5-8.8V33.1h15.2v32c0,12.4-6.4,18.3-20.4,18.3H279.3c-14,0-20.4-5.9-20.4-18.3v-32Z"></path>
  <path class="a1f08931-eea5-4f17-ba0e-81f2a30d92cb" d="M327.8,33.1h54.4V44.6H343.1v8h37.1V62.9H343.1v8h40V82.8H327.8Z"></path>
  <path class="a1f08931-eea5-4f17-ba0e-81f2a30d92cb" d="M410.2,50.6c0-14.6,8.2-18,21.9-18H450c21.7,0,24.5,4.7,24.4,18.8H459.2V50c0-3.6-2.6-4.6-7.1-4.6H435.5c-8,0-9.5,3.8-9.5,10v5.4c0,7.2,1.5,10,8.7,10H451c6.9,0,8.9-.7,8.9-6.9H475v4.7c0,8.4-3,15-18.3,15H432.1c-13.7,0-21.9-3.4-21.9-18Z"></path>
  <path class="a1f08931-eea5-4f17-ba0e-81f2a30d92cb" d="M479.8,33.1h46c11.7,0,14.9,5.8,14.9,14.8v3.2c0,6.7-1.5,10.6-8.5,12.2h0c4.5.8,8.3,2.8,8.3,11v8.4H525.3v-6c0-5.2-1.5-6.9-6.3-6.9H495V82.8H479.8ZM495,57.6h25.2c4.1,0,5.6-1.6,5.6-5.2V50.8c0-4.4-2.2-5.2-7-5.2H495Z"></path>
  <path class="a1f08931-eea5-4f17-ba0e-81f2a30d92cb" d="M545.2,50.6c0-14.6,8.2-18,21.9-18h24.4c13.7,0,21.9,3.4,21.9,18V65.4c0,14.6-8.2,18-21.9,18H567.1c-13.7,0-21.9-3.4-21.9-18Zm14.9,10.1c0,7.2,1.5,10,8.7,10h19.5c7.2,0,8.7-2.7,8.7-10V55.3c0-6.2-1.5-10-9.5-10H569.6c-8,0-9.5,3.8-9.5,10Z"></path>
  <path class="a1f08931-eea5-4f17-ba0e-81f2a30d92cb" d="M617.6,66.6h15.2c.1,5.3,2.2,5.7,6.6,5.7h18.7c3.2,0,6.5-.3,6.5-4.2s-1.8-4.6-21.4-4.6c-22.9,0-25.5-2.7-25.5-15,0-9,.8-15.9,20.1-15.9H659c17.6,0,19.2,6,19.2,14.7v1.6H663c0-3.6-.4-5.2-7.4-5.2H638.7c-3.4,0-5.8,1.2-5.8,3.8,0,4.3,1.9,4.5,18.2,4.4,23.7-.1,29.2,1.4,29.2,15.9s-4.5,15.6-24.8,15.6H637c-13.9,0-19.4-2.6-19.4-13.4Z"></path>
  <path class="a1f08931-eea5-4f17-ba0e-81f2a30d92cb" d="M684.4,66.6h15.2c.1,5.3,2.2,5.7,6.6,5.7h18.7c3.2,0,6.5-.3,6.5-4.2s-1.8-4.6-21.4-4.6c-22.9,0-25.5-2.7-25.5-15,0-9,.8-15.9,20.1-15.9h21.3c17.6,0,19.2,6,19.2,14.7v1.6H729.9c0-3.6-.4-5.2-7.4-5.2H705.6c-3.4,0-5.8,1.2-5.8,3.8,0,4.3,1.9,4.5,18.2,4.4,23.7-.1,29.2,1.4,29.2,15.9s-4.5,15.6-24.8,15.6H703.9c-13.9,0-19.4-2.6-19.4-13.4V66.6Z"></path>
  <path class="a1f08931-eea5-4f17-ba0e-81f2a30d92cb" d="M754.4,42.9V34.7h-3V33h8v1.7h-3v8.2Zm6.1,0V33h3.1l1.8,6.8,1.8-6.8h3.1v9.9h-1.9V35l-2.1,7.9h-1.8L762.4,35v7.9Z"></path>
  <g>
    <path class="a1f08931-eea5-4f17-ba0e-81f2a30d92cb" d="M135.8.3h10.8l8,14.8,8-14.8h10.8v23h-6.9V6.8h-.1l-9.2,16.5H152L142.8,6.8h-.1V23.3h-6.9Z"></path>
    <path class="a1f08931-eea5-4f17-ba0e-81f2a30d92cb" d="M179.2.3h25.2V5.6H186.3V9.3h17.2v4.8H186.3v3.7h18.5v5.5H179.2V.3Z"></path>
    <path class="a1f08931-eea5-4f17-ba0e-81f2a30d92cb" d="M209.3.3h21.3c7.1,0,9.5,2.3,9.5,8v7c0,5.7-2.5,8-9.5,8H209.3Zm7,17.1h12.5c3,0,4.2-.9,4.2-4.1V10.2c0-3.3-1.2-4.1-4.2-4.1H216.3Z"></path>
    <path class="a1f08931-eea5-4f17-ba0e-81f2a30d92cb" d="M253.6.3h9.2l12.6,23h-7.8l-2.2-4.1H251.1L249,23.3h-7.9Zm.1,14h9l-4.6-8.6Z"></path>
    <path class="a1f08931-eea5-4f17-ba0e-81f2a30d92cb" d="M270.3.3H278l9,17.1L296,.3h7.7l-12.4,23h-8.7Z"></path>
    <path class="a1f08931-eea5-4f17-ba0e-81f2a30d92cb" d="M306.6.3h7.1v23h-7.1Z"></path>
    <path class="a1f08931-eea5-4f17-ba0e-81f2a30d92cb" d="M318.8.3H344V5.6H325.9V9.3H343v4.8H325.8v3.7h18.5v5.5H318.7V.3Z"></path>
  </g>
</svg>
