<svg width="292" height="28" viewBox="0 0 292 28" fill="none" xmlns="http://www.w3.org/2000/svg">
<path d="M9.34528 20.2537V14.5903H19.6437C22.5292 14.5903 24.2405 12.9008 24.2405 10.3899C24.2405 7.87903 22.5292 6.18944 19.6437 6.18944H5.88792V27.6066H0V0.337891H19.6437C26.1772 0.337891 30.0158 4.16193 30.0158 10.2017C30.0158 16.2414 26.1772 20.2537 19.6437 20.2537H9.34528Z" fill="#58595B"/>
<path d="M57.7094 27.6066L50.9853 20.181H42.3982V15.1935H53.1126C56.0024 15.1935 57.5967 13.5039 57.5967 10.6166C57.5967 7.72932 55.9244 6.18944 53.1126 6.18944H38.9408V27.6066H33.0529V0.337891H53.1126C59.5724 0.337891 63.411 4.27742 63.411 10.4669C63.411 14.9325 61.2837 18.0422 57.8264 19.3939L66.1102 27.6066H57.7137H57.7094Z" fill="#58595B"/>
<path d="M80.3902 27.6066C72.5267 27.6066 66.7514 21.6054 66.7514 13.6921C66.7514 5.7788 72.5267 0.337891 80.3902 0.337891H87.227C95.3591 0.337891 100.978 5.77452 100.978 13.6921C100.978 21.6096 95.2032 27.6066 87.227 27.6066H80.3902ZM87.2313 21.7551C91.8281 21.7551 95.0559 18.4914 95.0559 13.9915C95.0559 9.49163 91.8281 6.18944 87.2313 6.18944H80.3946C75.9494 6.18944 72.6826 9.45313 72.6826 13.9915C72.6826 18.5299 75.9104 21.7551 80.3946 21.7551H87.2313Z" fill="#58595B"/>
<path d="M164.129 27.6066C156.266 27.6066 150.491 21.6054 150.491 13.6921C150.491 5.7788 156.266 0.337891 164.129 0.337891H170.966C179.098 0.337891 184.718 5.77452 184.718 13.6921C184.718 21.6096 178.942 27.6066 170.966 27.6066H164.129ZM170.971 21.7551C175.567 21.7551 178.795 18.4914 178.795 13.9915C178.795 9.49163 175.567 6.18944 170.971 6.18944H164.134C159.689 6.18944 156.422 9.45313 156.422 13.9915C156.422 18.5299 159.65 21.7551 164.134 21.7551H170.971Z" fill="#EC1C24"/>
<path d="M196.082 27.6066V6.18944H185.94V0.337891H212.156V6.18944H202.013V27.6066H196.086H196.082Z" fill="#EC1C24"/>
<path d="M215.227 27.6066V0.337891H221.154V27.6066H215.227Z" fill="#EC1C24"/>
<path d="M238.671 27.6066C230.807 27.6066 225.032 21.6054 225.032 13.6921C225.032 5.7788 230.807 0.337891 238.671 0.337891H245.508C253.64 0.337891 259.259 5.77452 259.259 13.6921C259.259 21.6096 253.484 27.6066 245.508 27.6066H238.671ZM245.508 21.7551C250.104 21.7551 253.332 18.4914 253.332 13.9915C253.332 9.49163 250.104 6.18944 245.508 6.18944H238.671C234.226 6.18944 230.959 9.45313 230.959 13.9915C230.959 18.5299 234.187 21.7551 238.671 21.7551H245.508Z" fill="#EC1C24"/>
<path d="M268.301 9.45316V27.6066H262.677V3.4519C262.677 1.31318 263.817 0 265.641 0C266.516 0 267.196 0.299421 268.032 1.08647L286.116 18.2305V0.076994H291.779V24.4969C291.779 26.6742 290.562 27.9831 288.816 27.9831C287.906 27.9831 287.182 27.6451 286.385 26.8581L268.301 9.45316Z" fill="#EC1C24"/>
<path d="M97.3564 27.487H110.224L125.501 13.6238C125.605 13.4655 125.748 13.3329 125.921 13.2431C126.077 13.1618 126.254 13.1147 126.445 13.1147C127.065 13.1147 127.567 13.6109 127.567 14.2226C127.567 14.4835 127.476 14.7273 127.32 14.9156C127.251 15.0011 127.169 15.0781 127.073 15.138L113.469 27.4827H126.341L130.292 23.8982L141.644 13.6024C141.743 13.4612 141.873 13.3414 142.025 13.2559C142.185 13.1661 142.376 13.1147 142.575 13.1147C143.195 13.1147 143.697 13.6109 143.697 14.2226C143.697 14.4793 143.606 14.7188 143.455 14.907C143.381 15.0011 143.294 15.0781 143.195 15.1423L141.557 16.6308L135.214 22.3883L130.297 26.8496L129.595 27.487H140.725C143.78 27.487 146.253 25.0445 146.253 22.0289V2.78899C146.253 1.55281 145.24 0.556162 143.992 0.556162C143.533 0.556162 143.104 0.693041 142.748 0.924023L142.211 1.41165L130.301 12.2208V2.86598C130.301 1.91211 129.716 1.09084 128.884 0.735815C128.598 0.611769 128.286 0.547607 127.957 0.547607C127.424 0.547607 126.93 0.722983 126.536 1.0224L126.22 1.30899L109.756 16.2501L100.961 24.2318L97.3694 27.4912L97.3564 27.487Z" fill="#EC1C24"/>
</svg>
